<?xml version="1.0" standalone="no"?><!DOCTYPE svg PUBLIC "-//W3C//DTD SVG 1.1//EN" "http://www.w3.org/Graphics/SVG/1.1/DTD/svg11.dtd"><svg t="1620301572320" class="icon" viewBox="0 0 1024 1024" version="1.1" xmlns="http://www.w3.org/2000/svg" p-id="4878" xmlns:xlink="http://www.w3.org/1999/xlink" width="200" height="200"><defs><style type="text/css"></style></defs><path d="M580.48 512.128l361.216-352.448a45.376 45.376 0 0 0 0-64.896l-1.92-1.92a48.128 48.128 0 0 0-66.56 0L512 445.888 150.784 92.928a48.128 48.128 0 0 0-66.56 0l-1.92 1.92a44.544 44.544 0 0 0 0 64.896l361.152 352.384-361.216 352.384a45.376 45.376 0 0 0 0 64.96l2.048 1.92a48.192 48.192 0 0 0 66.56 0L512 579.008l361.216 352.384a48.192 48.192 0 0 0 66.56 0l1.92-1.92a45.376 45.376 0 0 0 0-64.96L580.608 512.128z" p-id="4879" fill="#333333"></path></svg>