<?xml version="1.0" encoding="UTF-8"?>
<svg width="156px" height="12px" viewBox="0 0 156 12" version="1.1" xmlns="http://www.w3.org/2000/svg" xmlns:xlink="http://www.w3.org/1999/xlink">
    <!-- Generator: Sketch 59 (86127) - https://sketch.com -->
    <title>Lovense logo</title>
    <desc>Created with Sketch.</desc>
    <g id="页面-1" stroke="none" stroke-width="1" fill="none" fill-rule="evenodd">
        <g id="图标" transform="translate(-43.000000, -85.000000)" fill="#D70072">
            <g id="Lovense-logo" transform="translate(43.000000, 85.000000)">
                <path d="M107.209242,0 L107.152941,0 C106.471487,0 105.918691,0.549827687 105.918691,1.2281406 L105.918691,6.61483262 C105.918691,7.91548924 105.862744,7.04480204 105.862744,7.53611485 C105.862744,8.02714481 105.638457,8.33980163 105.30185,8.37342559 C104.964995,8.40676669 104.68469,8.2058008 104.68469,8.2058008 C104.68469,8.2058008 94.3212025,1.89054313 91.8935152,0.446516228 C90.6809446,-0.274719383 89.6197023,0.0662579311 89.2006233,0.279174292 C88.54152,0.61399959 87.9104259,1.39714429 87.9104259,2.45617514 L87.9104259,10.2714289 C87.9104259,10.9494236 88.4628675,11.4994281 89.1446754,11.4994281 L89.2006233,11.4994281 C89.8824666,11.4994281 90.4349789,10.9494236 90.4349789,10.2714289 L90.4349789,4.39137343 C90.4349789,3.73017302 90.6479134,2.77031693 91.2203364,3.07017473 C91.2790428,3.10097017 91.4079848,3.17005662 91.4079848,3.17005662 L104.404137,10.9970841 C104.404137,10.9970841 104.872373,11.3446023 105.526136,11.4434589 C106.908425,11.6530871 107.863006,10.6358829 107.383806,11.0051454 C107.961038,10.5605384 108.443492,9.82180134 108.443492,8.93859796 L108.443492,1.2281406 C108.443492,0.549827687 107.890732,0 107.209242,0 L107.209242,0 Z M128.471541,4.46583405 L113.997438,4.46583405 C113.039285,4.46583405 112.931456,3.706661 112.931456,3.40517681 C112.931456,3.10365726 113.209958,2.51200293 114.109758,2.51200293 L130.070372,2.51200293 C130.736654,2.51200293 131.276647,1.97469141 131.276647,1.31182925 L131.276647,1.20013832 C131.276647,0.537311515 130.736654,0 130.070372,0 L115.399991,0 L115.063454,0 L114.278026,0 C111.15007,0 110.462922,2.45617514 110.462922,3.4610046 C110.462922,4.51045385 111.157532,6.97776627 114.109758,6.97776627 L128.583791,6.97776627 C129.541943,6.97776627 129.649772,7.73679789 129.649772,8.03842351 C129.649772,8.33980163 129.37127,8.93145597 128.471541,8.93145597 L112.510574,8.93145597 C111.844645,8.93145597 111.304652,9.46890891 111.304652,10.1318064 L111.304652,10.243462 C111.304652,10.9062888 111.844645,11.4434589 112.510574,11.4434589 L127.517845,11.4434589 L128.303273,11.4434589 C131.431229,11.4434589 132.118023,8.98742518 132.118023,7.9824543 C132.118023,6.93314647 131.423767,4.46583405 128.471541,4.46583405 L128.471541,4.46583405 Z M153.110732,4.46583405 L139.849199,4.46583405 C139.173404,4.46583405 138.625949,5.01247966 138.625949,5.68697409 L138.625949,5.75662623 C138.625949,6.43112066 139.173404,6.97776627 139.849199,6.97776627 L153.110732,6.97776627 C153.786528,6.97776627 154.334266,6.43112066 154.334266,5.75662623 L154.334266,5.68697409 C154.334266,5.01247966 153.786528,4.46583405 153.110732,4.46583405 L153.110732,4.46583405 Z M155.4,1.31182925 L155.4,1.20013832 C155.4,0.537311515 154.860007,0 154.194007,0 L139.186807,0 L139.074487,0 C136.038269,0 134.19372,3.06331558 134.19372,5.47066351 L134.19372,5.97297217 C134.19372,7.84993844 135.505419,11.4434589 138.794181,11.4434589 L154.194007,11.4434589 C154.860007,11.4434589 155.4,10.9062888 155.4,10.243462 L155.4,10.1318064 C155.4,9.46890891 154.860007,8.93145597 154.194007,8.93145597 L139.747949,8.93145597 C137.981699,8.93145597 136.606235,8.03725675 136.606235,5.74962566 L136.606235,5.69379788 C136.606235,3.93651309 137.504868,2.51200293 139.747949,2.51200293 L154.194007,2.51200293 C154.860007,2.51200293 155.4,1.97469141 155.4,1.31182925 L155.4,1.31182925 Z M83.5454974,4.46583405 L70.2836461,4.46583405 C69.6080978,4.46583405 69.0603599,5.01247966 69.0603599,5.68697409 L69.0603599,5.75662623 C69.0603599,6.43112066 69.6080978,6.97776627 70.2836461,6.97776627 L83.5454974,6.97776627 C84.2209749,6.97776627 84.7687129,6.43112066 84.7687129,5.75662623 L84.7687129,5.68697409 C84.7687129,5.01247966 84.2209749,4.46583405 83.5454974,4.46583405 L83.5454974,4.46583405 Z M63.4044559,0.29568574 L63.359648,0.262026429 C62.815482,-0.146375579 62.0415121,-0.0385738542 61.6309561,0.502945074 C61.6309561,0.502945074 58.1513275,5.09213768 55.3754333,8.75308283 C55.1105471,9.10268711 54.6738562,9.38794271 54.4741836,9.37811362 C53.9355345,9.35163166 53.5943299,8.90256977 53.3328034,8.55865787 C52.0255953,6.83906303 47.1991495,0.489686417 47.1991495,0.489686417 C46.7883106,-0.0515143039 46.0143407,-0.158856395 45.4703161,0.249969889 L45.4256143,0.283593845 C44.8815897,0.692455486 44.7737962,1.46265974 45.1847058,2.00386046 C45.1847058,2.00386046 51.4987229,10.5340564 52.0056493,11.0527705 C52.9874612,12.0577413 55.6695312,12.6988593 57.1669693,10.6621174 C59.9329259,6.89948715 63.6462839,2.01577557 63.6462839,2.01577557 C64.0568752,1.47425664 63.948622,0.704229173 63.4044559,0.29568574 L63.4044559,0.29568574 Z M84.6284187,0 L69.6213598,0 L69.5092518,0 C66.4728213,0 64.6284494,3.06331558 64.6284494,5.47066351 L64.6284494,5.97297217 C64.6284494,7.84993844 65.939866,11.4434589 69.2286987,11.4434589 L84.6284187,11.4434589 C85.2947012,11.4434589 85.8346942,10.9062888 85.8346942,10.243462 L85.8346942,10.1318064 C85.8346942,9.46890891 85.2947012,8.93145597 84.6284187,8.93145597 L70.1823952,8.93145597 C68.4163221,8.93145597 67.0406821,8.03725675 67.0406821,5.74962566 L67.0406821,5.69379788 C67.0406821,3.93651309 67.9394562,2.51200293 70.1823952,2.51200293 L84.6284187,2.51200293 C85.2947012,2.51200293 85.8346942,1.97469141 85.8346942,1.31182925 L85.8346942,1.20013832 C85.8346942,0.537311515 85.2947012,0 84.6284187,0 L84.6284187,0 Z M19.5231034,8.93145597 L3.5343034,8.93145597 C3.04332674,8.93145597 2.52451758,8.4904907 2.52451758,7.64780578 L2.52451758,1.2281406 C2.52451758,0.549827687 1.97186382,0 1.29019739,0 L1.234108,0 C0.552512303,0 -1.70530257e-13,0.549827687 -1.70530257e-13,1.2281406 L-1.70530257e-13,7.70345679 C-1.70530257e-13,8.40800417 0.100897241,9.5710536 0.841376189,10.3830845 C1.58093564,11.1939486 2.58898855,11.4434589 3.36603523,11.4434589 L19.5231034,11.4434589 C20.2046991,11.4434589 20.7573528,10.8937726 20.7573528,10.2154597 L20.7573528,10.1597734 C20.7573528,9.48146044 20.2046991,8.93145597 19.5231034,8.93145597 L19.5231034,8.93145597 Z M41.0659552,5.74962566 C41.0659552,7.50691045 40.2233412,8.93145597 38.0365624,8.93145597 L27.6577268,8.93145597 C25.8916184,8.93145597 24.5161553,8.03725675 24.5161553,5.74962566 L24.5161553,5.69379788 C24.5161553,3.93651309 25.4147879,2.51200293 27.6577268,2.51200293 L38.3731341,2.51200293 C40.1392072,2.51200293 41.0659552,4.04816866 41.0659552,5.69379788 L41.0659552,5.74962566 Z M38.5975624,0 L27.0967269,0 C24.0603317,0 22.1037811,2.89579687 22.1037811,5.47066351 L22.1037811,5.97297217 C22.1037811,8.26862916 23.751734,11.4434589 27.0407082,11.4434589 L38.5975624,11.4434589 C41.8583504,11.4434589 43.534348,8.15697359 43.534348,5.97297217 L43.534348,5.47066351 C43.534348,2.92379915 41.6339222,0 38.5975624,0 L38.5975624,0 Z" id="Fill-1"></path>
            </g>
        </g>
    </g>
</svg>