<?xml version="1.0" standalone="no"?><!DOCTYPE svg PUBLIC "-//W3C//DTD SVG 1.1//EN" "http://www.w3.org/Graphics/SVG/1.1/DTD/svg11.dtd"><svg t="1619688900292" class="icon" viewBox="0 0 1024 1024" version="1.1" xmlns="http://www.w3.org/2000/svg" p-id="8824" xmlns:xlink="http://www.w3.org/1999/xlink" width="200" height="200"><defs><style type="text/css"></style></defs><path d="M498.56 92.970667c226.688 0 411.52 184.832 411.52 411.52 0 226.602667-184.832 411.477333-411.52 411.477333a410.538667 410.538667 0 0 1-316.586667-148.437333c-96.64-124.885333 14.592-205.312 96.682667-90.026667 54.186667 72.704 134.741333 106.709333 219.904 106.709333 156.928 0 279.637333-128.682667 279.637333-279.722666 0-151.125333-121.856-279.381333-279.637333-279.381334-70.186667 0-133.248 26.752-189.952 77.738667l-76.885333 3.84c-12.501333 0-18.005333-33.365333-16.597334-100.138667 75.562667-71.253333 177.92-113.578667 283.434667-113.578666z" p-id="8825"></path><path d="M303.530667 282.752L231.381333 213.077333 155.648 139.946667l-10.496-10.154667c-13.312-12.8-33.237333-0.512-32.981333 16.042667L111.36 384.682667c-1.28 12.458667 12.757333 24.533333 23.765333 22.954666l240.554667-7.253333c14.933333-0.512 29.568-19.328 15.786667-32.725333l-34.005334-32.810667-53.973333-52.096z" p-id="8826"></path></svg>