<?xml version="1.0" standalone="no"?><!DOCTYPE svg PUBLIC "-//W3C//DTD SVG 1.1//EN" "http://www.w3.org/Graphics/SVG/1.1/DTD/svg11.dtd"><svg t="1619688885134" class="icon" viewBox="0 0 1024 1024" version="1.1" xmlns="http://www.w3.org/2000/svg" p-id="8539" xmlns:xlink="http://www.w3.org/1999/xlink" width="200" height="200"><defs><style type="text/css"></style></defs><path d="M951.509333 882.944l-158.72-158.72a418.858667 418.858667 0 0 0 92.16-261.845333c0-169.472-102.912-321.834667-259.541333-388.309334-160.853333-64.341333-338.986667-27.904-459.093333 92.245334a420.437333 420.437333 0 0 0-92.330667 457.002666c66.517333 156.586667 218.88 259.626667 388.394667 259.626667a414.506667 414.506667 0 0 0 263.893333-94.421333l158.72 158.762666c8.661333 8.618667 19.328 15.061333 32.256 15.061334 12.8 0 23.594667-6.442667 32.128-12.928 19.285333-17.194667 19.285333-47.189333 2.133333-66.474667zM134.101333 460.288a328.277333 328.277333 0 0 1 328.192-328.277333 326.912 326.912 0 0 1 328.32 325.504v2.773333a328.277333 328.277333 0 0 1-328.234666 328.234667h-0.085334a326.912 326.912 0 0 1-328.234666-325.546667v-2.688h0.042666z m480.554667-38.613333h-304.64c-21.461333 0-42.922667 19.285333-42.922667 40.746666 0 21.461333 19.328 40.746667 42.922667 40.746667h304.64c21.504 0 42.965333-19.285333 42.965333-40.746667a44.074667 44.074667 0 0 0-42.965333-40.746666z" p-id="8540"></path></svg>