<?xml version="1.0" encoding="UTF-8"?>
<svg width="60px" height="60px" viewBox="0 0 60 60" version="1.1" xmlns="http://www.w3.org/2000/svg" xmlns:xlink="http://www.w3.org/1999/xlink">
    <title>upload_img_msg</title>
    <g id="Model-Entity" stroke="none" stroke-width="1" fill="none" fill-rule="evenodd">
        <g id="upload_image-fail" transform="translate(-930.000000, -475.000000)" fill-rule="nonzero">
            <g id="pop" transform="translate(730.000000, 425.000000)">
                <g id="upload_img_msg" transform="translate(200.000000, 50.000000)">
                    <g id="pic" transform="translate(3.000000, 6.000000)" fill="#D8D8D8">
                        <path d="M47.43195,0 L6.76768775,0 L6.76768758,0 C3.02299905,0.0233561995 -0.000234398109,3.06565242 -0.000234398109,6.81041122 L-0.000234398109,40.7916831 L-0.000234398109,40.791691 C0.00752297262,44.5364217 3.03716058,47.5723551 6.7818819,47.5879548 L47.4319498,47.5879548 L47.4319501,47.5879548 C51.1711201,47.5646409 54.1921893,44.5309407 54.199872,40.791691 L54.199872,6.8104191 L54.199872,6.81028665 C54.199872,3.06552785 51.1764934,0.0232983874 47.4318095,0 L47.43195,0 Z M50.8159157,36.9262867 L42.6745654,26.5195152 L42.6745653,26.5195151 C41.9393141,25.2284513 40.2966624,24.7778733 39.0055938,25.5131198 C38.7063459,25.6835386 38.4425997,25.9098287 38.2286826,26.1796996 L32.2819694,32.1547546 L31.1351019,33.301622 L28.7564119,35.6944688 L27.0573483,33.5140026 L18.9726347,23.1072311 L18.9726347,23.1072311 C18.135934,21.9851029 16.5479889,21.753717 15.4258561,22.5904177 C15.2295188,22.7368139 15.0554375,22.9108952 14.9090427,23.1072311 L3.38373139,37.0537263 L3.38373139,6.81038302 L3.38373142,6.81038346 C3.2706201,5.04713161 4.60803048,3.52590445 6.37124955,3.41225626 L47.4319219,3.41225626 L47.4319217,3.41225626 C49.2496039,3.54233751 50.6933994,4.99217198 50.8159157,6.81038345 L50.8159157,36.9262867 Z M39.1631835,11.6952214 L39.1631835,11.6952214 C37.165243,9.70094895 33.9289029,9.70392366 31.9346726,11.7018636 C29.9404001,13.6998041 29.9433748,16.9361442 31.9413148,18.9303745 C33.93666,20.9220517 37.1678658,20.9220517 39.1632204,18.9303745 L39.1632204,18.9303745 C41.1611609,16.9361021 41.164131,13.6997947 39.1698626,11.7018636 C39.1676506,11.6996475 39.1654365,11.6974334 39.1632204,11.6952214 L39.1631835,11.6952214 Z" id="形状"></path>
                    </g>
                    <g id="fail" transform="translate(44.000000, 0.000000)">
                        <path d="M0.28010048,8.00001078 L0.28010048,8.00001194 C0.28010048,12.2636024 3.73642029,15.7199222 8.00001078,15.7199222 C12.2636013,15.7199222 15.7199211,12.2636024 15.7199211,8.00001194 L15.7199211,8.00001194 C15.7199211,3.73642146 12.2636013,0.280101646 8.00001078,0.280101646 C3.73642029,0.280101646 0.28010048,3.73642146 0.28010048,8.00001194 L0.28010048,8.00001078 Z" id="路径" fill="#F06156"></path>
                        <path d="M8.00543842,3.78997299 C7.58027345,3.78997299 7.23290462,4.22056559 7.23290462,4.74523725 L7.23290462,9.5215586 C7.23290462,10.0462303 7.58027345,10.4768229 8.00543842,10.4768229 C8.43060339,10.4768229 8.77797221,10.0462303 8.77797221,9.5215586 L8.77797221,4.74523725 C8.77797221,4.22056559 8.43060339,3.78997299 8.00543842,3.78997299 Z" id="路径" fill="#FFFFFF"></path>
                        <path d="M7.22747699,12.094259 L7.22747699,12.0942591 C7.22747699,12.5239145 7.57578298,12.8722205 8.00543842,12.8722205 C8.43509385,12.8722205 8.78339985,12.5239145 8.78339985,12.0942591 L8.78339985,12.0942591 C8.78339985,11.6646036 8.43509385,11.3162977 8.00543842,11.3162977 C7.57578298,11.3162977 7.22747699,11.6646036 7.22747699,12.0942591 L7.22747699,12.094259 Z" id="路径" fill="#FFFFFF"></path>
                    </g>
                </g>
            </g>
        </g>
    </g>
</svg>