<?xml version="1.0" standalone="no"?><!DOCTYPE svg PUBLIC "-//W3C//DTD SVG 1.1//EN" "http://www.w3.org/Graphics/SVG/1.1/DTD/svg11.dtd"><svg t="1619688877494" class="icon" viewBox="0 0 1024 1024" version="1.1" xmlns="http://www.w3.org/2000/svg" p-id="8398" xmlns:xlink="http://www.w3.org/1999/xlink" width="200" height="200"><defs><style type="text/css"></style></defs><path d="M968.490667 900.394667l-158.72-158.72a418.858667 418.858667 0 0 0 92.16-261.845334c0-169.472-102.954667-321.834667-259.541334-388.309333C481.493333 27.178667 303.36 63.573333 183.296 183.765333a420.437333 420.437333 0 0 0-92.330667 457.002667c66.474667 156.586667 218.88 259.626667 388.352 259.626667a414.506667 414.506667 0 0 0 263.936-94.421334l158.72 158.762667c8.618667 8.618667 19.328 15.061333 32.213334 15.061333 12.842667 0 23.594667-6.442667 32.128-12.885333 19.328-17.237333 19.328-47.232 2.133333-66.56zM151.04 477.738667a328.277333 328.277333 0 0 1 328.192-328.277334 326.912 326.912 0 0 1 328.32 325.504v2.773334a328.277333 328.277333 0 0 1-328.277333 328.234666h-0.042667a326.912 326.912 0 0 1-328.277333-325.546666v-2.688h0.085333z m480.554667-38.613334h-304.64c-21.504 0-42.922667 19.285333-42.922667 40.746667 0 21.461333 19.285333 40.746667 42.88 40.746667h304.64c21.546667 0 43.008-19.285333 43.008-40.746667a44.074667 44.074667 0 0 0-42.965333-40.746667z m-111.573334 193.066667v-304.64c0-21.504-19.285333-42.922667-40.746666-42.922667-21.461333 0-40.746667 19.285333-40.746667 42.88v304.64c0 21.546667 19.285333 43.008 40.746667 43.008 22.613333-1.706667 40.234667-20.309333 40.746666-42.965333z" p-id="8399"></path></svg>