<?xml version="1.0" standalone="no"?><!DOCTYPE svg PUBLIC "-//W3C//DTD SVG 1.1//EN" "http://www.w3.org/Graphics/SVG/1.1/DTD/svg11.dtd"><svg t="1619689571658" class="icon" viewBox="0 0 1024 1024" version="1.1" xmlns="http://www.w3.org/2000/svg" p-id="8966" xmlns:xlink="http://www.w3.org/1999/xlink" width="200" height="200"><defs><style type="text/css"></style></defs><path d="M551.424 85.333333C324.778667 85.333333 139.946667 270.208 139.946667 496.853333c0 226.602667 184.874667 411.477333 411.52 411.477334a410.538667 410.538667 0 0 0 316.629333-148.437334c96.64-124.885333-14.592-205.312-96.682667-90.026666-54.229333 72.746667-134.741333 106.752-219.946666 106.752-156.885333 0-279.637333-128.682667-279.637334-279.765334 0-151.125333 121.898667-279.381333 279.637334-279.381333 70.186667 0 133.248 26.752 189.994666 77.781333l76.842667 3.84c12.501333 0 18.048-33.408 16.64-100.181333C759.253333 127.658667 656.938667 85.333333 551.381333 85.333333z" p-id="8967"></path><path d="M746.496 275.114667l72.106667-69.674667 75.776-73.130667 10.453333-10.112c13.312-12.842667 33.28-0.554667 33.024 16l0.725333 238.890667c1.28 12.458667-12.714667 24.533333-23.765333 22.954667l-240.512-7.296c-14.933333-0.512-29.610667-19.328-15.786667-32.682667l34.005334-32.853333 53.973333-52.053334z" p-id="8968"></path></svg>